# xmcd
#
# Track frame offsets:
#   180
#   5380
#   27055
#   49530
#   72125
#   97580
#   119960
#   141670
#   165610
#   190490
#   212105
#   233215
#   252805
#   276595
#
# Disc length: 3760 seconds
#
# Revision: 0
# Processed by: cddbd v1.4PL0 Copyright (c) Steve Scherf et al.
# Submitted via: uFREEDB 1.6.0
#
DISCID=ca0eae0e
DTITLE=Black Total Vl. III - Black Total Vl. III
DYEAR=1998
DGENRE=R and B
TTITLE0=INTRO
TTITLE1=PHUKIN WIT DA BEAT
TTITLE2=SURE SHOT
TTITLE3=DOLLAR BILL
TTITLE4=BEST FRIENDS
TTITLE5=FUNKY TRIP
TTITLE6=SOLITARY
TTITLE7=MASS CONFUZION
TTITLE8=GUARDIAN ANGEL
TTITLE9=M.O.V.E.
TTITLE10=NEXT STUFF
TTITLE11=SUMMER BREEZE
TTITLE12=MESSAGE TO JULIA
TTITLE13=OUTRO
EXTD=
EXTT0=
EXTT1=
EXTT2=
EXTT3=
EXTT4=
EXTT5=
EXTT6=
EXTT7=
EXTT8=
EXTT9=
EXTT10=
EXTT11=
EXTT12=
EXTT13=
PLAYORDER=
